<svg xmlns="http://www.w3.org/2000/svg" xmlns:xlink="http://www.w3.org/1999/xlink" width="38" height="24" viewBox="0 0 38 24"><defs><style>.a{fill:#f1f1f1;}.b{clip-path:url(#a);}</style><clipPath id="a"><rect class="a" width="38" height="24" transform="translate(675 3)"/></clipPath></defs><g class="b" transform="translate(-675 -3)"><g transform="translate(675 -1.499)"><g transform="translate(0 4.499)"><path class="a" d="M15.539,15.171a5.666,5.666,0,0,0,1.782-1.308A5.081,5.081,0,0,0,18.4,10.47a5.805,5.805,0,0,0-1.069-3.515Q15.546,4.561,11.28,4.5H0V27.525H10.518a16.447,16.447,0,0,0,3.3-.309,6.486,6.486,0,0,0,2.637-1.157,6.385,6.385,0,0,0,1.653-1.811,6.653,6.653,0,0,0,1.041-3.671,6.041,6.041,0,0,0-.909-3.374A5.247,5.247,0,0,0,15.539,15.171ZM4.653,8.5H9.734a8.957,8.957,0,0,1,2.76.359,2.066,2.066,0,0,1,1.254,2.13,2.168,2.168,0,0,1-.949,2.021,4.762,4.762,0,0,1-2.469.571H4.653Zm8.034,14.626a5.564,5.564,0,0,1-2.366.406H4.653V17.39H10.4a6,6,0,0,1,2.337.387,2.469,2.469,0,0,1,1.485,2.472A2.894,2.894,0,0,1,12.687,23.124Z" transform="translate(0 -4.499)"/><rect class="a" width="10.003" height="2.866" transform="translate(24.138 1.074)"/><path class="a" d="M30.088,14.862a8.215,8.215,0,0,0-1.379-3.52A6.95,6.95,0,0,0,25.73,8.823a9.863,9.863,0,0,0-4.061-.8A8.4,8.4,0,0,0,15.5,10.386q-2.376,2.362-2.377,6.79,0,4.721,2.637,6.816a9.474,9.474,0,0,0,6.079,2.094A8.461,8.461,0,0,0,28.331,23.6,5.586,5.586,0,0,0,30,20.526H25.394a3.716,3.716,0,0,1-.93,1.171,3.858,3.858,0,0,1-2.5.779,4.626,4.626,0,0,1-2.491-.642,4.067,4.067,0,0,1-1.808-3.591H30.239A21.667,21.667,0,0,0,30.088,14.862ZM17.776,15.3a4.615,4.615,0,0,1,1.2-2.635,3.629,3.629,0,0,1,2.694-.975,4.007,4.007,0,0,1,2.68.916,3.724,3.724,0,0,1,1.2,2.694Z" transform="translate(7.528 -2.477)"/></g></g></g></svg>