<svg xmlns="http://www.w3.org/2000/svg" width="36" height="36" viewBox="0 0 36 36"><defs><style>.a{fill:#f1f1f1;}</style></defs><path class="a" d="M36,12.356A6.718,6.718,0,0,0,29.29,5.646H18.982A6.711,6.711,0,0,0,5.646,6.712V17.02A6.711,6.711,0,0,0,6.712,30.356H17.02A6.711,6.711,0,0,0,30.356,29.29V18.982A6.72,6.72,0,0,0,36,12.356ZM7.778,19.067H9.534a1.756,1.756,0,1,1-1.756,1.756Zm20.446-2.132H26.468a1.756,1.756,0,1,1,1.756-1.756Zm2.132-.125V15.179a3.889,3.889,0,1,0-3.889,3.889h1.756V29.29a4.578,4.578,0,0,1-9.031,1.066h1.631a3.889,3.889,0,1,0-3.889-3.889v1.756H6.712a4.578,4.578,0,0,1-1.066-9.031v1.631a3.889,3.889,0,1,0,3.889-3.889H7.778V6.712a4.578,4.578,0,0,1,9.031-1.066H15.179a3.889,3.889,0,1,0,3.889,3.889V7.778H29.29a4.578,4.578,0,0,1,1.066,9.031ZM19.067,28.224V26.468a1.756,1.756,0,1,1,1.756,1.756ZM16.935,7.778V9.534a1.756,1.756,0,1,1-1.756-1.756Z" transform="translate(-0.001 -0.001)"/></svg>