<svg xmlns="http://www.w3.org/2000/svg" width="54" height="54" viewBox="0 0 54 54"><defs><style>.a{fill:#f1f1f1;}</style></defs><path class="a" d="M54,18.534A10.078,10.078,0,0,0,43.935,8.468H28.472a10.066,10.066,0,0,0-20,1.6V25.53a10.066,10.066,0,0,0,1.6,20H25.53a10.066,10.066,0,0,0,20-1.6V28.472A10.08,10.08,0,0,0,54,18.534ZM11.666,28.6H14.3a2.634,2.634,0,1,1-2.634,2.634Zm30.669-3.2H39.7a2.634,2.634,0,1,1,2.634-2.634Zm3.2-.188V22.768A5.833,5.833,0,1,0,39.7,28.6h2.634V43.935a6.868,6.868,0,0,1-13.547,1.6h2.446A5.833,5.833,0,1,0,25.4,39.7v2.634H10.067a6.868,6.868,0,0,1-1.6-13.547v2.446A5.833,5.833,0,1,0,14.3,25.4H11.666V10.067a6.868,6.868,0,0,1,13.547-1.6H22.768A5.833,5.833,0,1,0,28.6,14.3V11.666H43.935a6.868,6.868,0,0,1,1.6,13.547ZM28.6,42.336V39.7a2.634,2.634,0,1,1,2.634,2.634ZM25.4,11.666V14.3a2.634,2.634,0,1,1-2.634-2.634Z" transform="translate(-0.001 -0.001)"/></svg>