<svg xmlns="http://www.w3.org/2000/svg" width="45" height="45" viewBox="0 0 45 45"><defs><style>.a{fill:#f1f1f1;}</style></defs><path class="a" d="M45,15.445a8.4,8.4,0,0,0-8.389-8.389H23.727A8.389,8.389,0,0,0,7.057,8.389V21.275a8.389,8.389,0,0,0,1.333,16.67H21.275a8.389,8.389,0,0,0,16.67-1.333V23.727A8.4,8.4,0,0,0,45,15.445ZM9.722,23.834h2.2a2.2,2.2,0,1,1-2.2,2.2ZM35.28,21.168h-2.2a2.2,2.2,0,1,1,2.2-2.2Zm2.666-.157V18.973a4.861,4.861,0,1,0-4.861,4.861h2.2V36.612a5.723,5.723,0,0,1-11.289,1.333h2.038a4.861,4.861,0,1,0-4.861-4.861v2.2H8.389A5.723,5.723,0,0,1,7.057,23.991v2.038a4.861,4.861,0,1,0,4.861-4.861h-2.2V8.389A5.723,5.723,0,0,1,21.011,7.057H18.973a4.861,4.861,0,1,0,4.861,4.861v-2.2H36.612a5.723,5.723,0,0,1,1.333,11.289ZM23.834,35.28v-2.2a2.2,2.2,0,1,1,2.2,2.2ZM21.168,9.722v2.2a2.2,2.2,0,1,1-2.2-2.2Z" transform="translate(-0.001 -0.001)"/></svg>