<svg xmlns="http://www.w3.org/2000/svg" xmlns:xlink="http://www.w3.org/1999/xlink" width="18" height="18" viewBox="0 0 22 22"><defs><style>.a,.c{fill:#25d366;}.b{clip-path:url(#a);}.c{fill-rule:evenodd;}</style><clipPath id="a"><rect class="a" width="22" height="22" transform="translate(1063 169)"/></clipPath></defs><g class="b" transform="translate(-1063 -169)"><path class="c" d="M18.713,3.2A10.9,10.9,0,0,0,1.555,16.351L.009,22l5.779-1.516A10.89,10.89,0,0,0,11,21.811h0A10.906,10.906,0,0,0,18.713,3.2ZM11,19.97h0a9.05,9.05,0,0,1-4.612-1.263l-.331-.2-3.429.9.915-3.344-.216-.343A9.061,9.061,0,1,1,11,19.97Zm4.97-6.786c-.272-.136-1.612-.8-1.861-.886s-.431-.136-.613.136-.7.886-.863,1.068-.318.2-.59.068a7.44,7.44,0,0,1-2.191-1.352,8.217,8.217,0,0,1-1.515-1.887c-.159-.273,0-.406.12-.556a7.705,7.705,0,0,0,.681-.932.5.5,0,0,0-.023-.477c-.068-.136-.613-1.477-.84-2.023s-.446-.459-.613-.468-.34-.01-.522-.01a1,1,0,0,0-.726.341A3.055,3.055,0,0,0,5.462,8.48,5.3,5.3,0,0,0,6.575,11.3a12.142,12.142,0,0,0,4.653,4.113,15.591,15.591,0,0,0,1.553.574,3.734,3.734,0,0,0,1.716.108,2.806,2.806,0,0,0,1.839-1.3,2.276,2.276,0,0,0,.159-1.3c-.068-.114-.25-.182-.522-.318Zm0,0" transform="translate(1063.044 169)"/></g></svg>